<svg width="74" height="71" viewBox="0 0 74 71" fill="none" xmlns="http://www.w3.org/2000/svg">
<g filter="url(#filter0_b_180_439)">
<rect y="11.5254" width="55.4344" height="55.4344" rx="8" transform="rotate(-12 0 11.5254)" fill="#FE551E"/>
</g>
<g filter="url(#filter1_b_180_439)">
<path d="M44.1299 70.2422C36.1781 70.2422 29.4537 67.4849 23.939 61.9702C18.4243 56.4555 15.667 49.7311 15.667 41.7793C15.667 33.8275 18.4243 27.1031 23.939 21.5884C29.4537 16.0737 36.1781 13.3164 44.1299 13.3164C52.0817 13.3164 58.8061 16.0737 64.3208 21.5884C69.8354 27.1031 72.5928 33.8275 72.5928 41.7793C72.5928 49.7311 69.8354 56.4555 64.3208 61.9702C58.8061 67.4849 52.0817 70.2422 44.1299 70.2422Z" fill="#D1CFCF" fill-opacity="0.25"/>
<path d="M44.1299 69.7422C36.3079 69.7422 29.7116 67.0356 24.2926 61.6166C18.8736 56.1976 16.167 49.6013 16.167 41.7793C16.167 33.9573 18.8736 27.361 24.2926 21.942C29.7116 16.523 36.3079 13.8164 44.1299 13.8164C51.9518 13.8164 58.5482 16.523 63.9672 21.942C69.3862 27.361 72.0928 33.9573 72.0928 41.7793C72.0928 49.6013 69.3862 56.1976 63.9672 61.6166C58.5482 67.0356 51.9518 69.7422 44.1299 69.7422Z" stroke="white" stroke-opacity="0.25"/>
</g>
<g filter="url(#filter2_d_180_439)">
<path d="M53.7049 59.2625C54.15 59.7145 54.3842 60.2592 54.3842 60.9082C54.3842 61.5572 54.1617 62.1019 53.7049 62.5539C53.2481 62.9943 52.6976 63.2261 52.0417 63.2261C51.3858 63.2261 50.8353 63.0059 50.3786 62.5539C49.9335 62.1019 49.6992 61.5572 49.6992 60.9082C49.6992 60.2592 49.9218 59.7145 50.3786 59.2625C50.8353 58.8221 51.3858 58.6019 52.0534 58.6019C52.721 58.6019 53.2598 58.8221 53.7166 59.2741L53.7049 59.2625ZM52.03 24.981C52.6859 24.981 53.2481 24.7608 53.6932 24.3088C54.15 23.8684 54.3725 23.3121 54.3725 22.6631C54.3725 22.0141 54.15 21.4578 53.6932 21.0174C53.2481 20.5654 52.6859 20.3452 52.03 20.3452C51.3741 20.3452 50.8119 20.5654 50.3551 21.0058C49.8984 21.4462 49.6758 22.0025 49.6758 22.6515C49.6758 23.3005 49.8984 23.8568 50.3551 24.2972C50.8002 24.7492 51.3624 24.9694 52.0183 24.9694L52.03 24.981ZM66.5885 40.1399C66.1434 39.688 65.5812 39.4678 64.9253 39.4678C64.2695 39.4678 63.7073 39.688 63.2505 40.1284C62.7937 40.5688 62.5712 41.125 62.5712 41.7741C62.5712 42.4231 62.7937 42.9794 63.2505 43.4198C63.6955 43.8717 64.2577 44.0919 64.9136 44.0919C65.5695 44.0919 66.1317 43.8717 66.5768 43.4198C67.0336 42.9794 67.2561 42.4231 67.2561 41.7741C67.2561 41.125 67.0336 40.5688 66.5768 40.1284L66.5885 40.1399ZM42.7889 61.4297C37.6355 61.0009 33.3019 58.9264 29.7882 55.1946C26.2745 51.4628 24.5176 47.0009 24.5176 41.7856C24.5176 36.5704 26.2745 32.1548 29.7882 28.3999C33.3019 24.6449 37.6355 22.5588 42.7889 22.13C43.2574 22.072 43.6557 21.875 43.9602 21.5389C44.2647 21.2028 44.4287 20.7972 44.4287 20.3336C44.4287 19.8353 44.2296 19.4296 43.8431 19.0935C43.4565 18.7574 42.9998 18.6184 42.4961 18.6531C36.4408 19.1515 31.3459 21.6084 27.2115 26.0124C23.077 30.4164 21.0039 35.678 21.0039 41.7856C21.0039 47.8933 23.077 53.1549 27.2115 57.5473C31.3459 61.9397 36.4408 64.3966 42.4961 64.895C42.9998 64.9297 43.4565 64.7907 43.8431 64.4546C44.2296 64.1185 44.4287 63.7128 44.4287 63.2145C44.4287 62.7625 44.2764 62.3569 43.9602 62.0208C43.6557 61.6731 43.2574 61.4761 42.7889 61.4181V61.4297ZM61.3999 33.0936C62.0558 33.0936 62.618 32.8734 63.0631 32.4214C63.5199 31.981 63.7424 31.4247 63.7424 30.7757C63.7424 30.1267 63.5199 29.5704 63.0631 29.13C62.618 28.678 62.0558 28.4578 61.3999 28.4578C60.744 28.4578 60.1818 28.678 59.7251 29.1184C59.2683 29.5588 59.0457 30.1151 59.0457 30.7641C59.0457 31.4131 59.2683 31.9694 59.7251 32.4098C60.1701 32.8618 60.7323 33.082 61.3882 33.082L61.3999 33.0936ZM61.4116 50.4777C60.7557 50.4777 60.1935 50.6979 59.7368 51.1383C59.28 51.5787 59.0574 52.135 59.0574 52.784C59.0574 53.433 59.28 53.9893 59.7368 54.4297C60.1818 54.8817 60.744 55.1019 61.3999 55.1019C62.0558 55.1019 62.618 54.8817 63.0631 54.4297C63.5199 53.9893 63.7424 53.433 63.7424 52.784C63.7424 52.135 63.5199 51.5787 63.0631 51.1383C62.618 50.6863 62.0558 50.4661 61.3999 50.4661L61.4116 50.4777ZM36.558 51.1267C36.8859 51.4512 37.2724 51.6135 37.7175 51.6135C38.1977 51.6135 38.5959 51.4512 38.9239 51.1267C39.2518 50.8022 39.4158 50.4082 39.4158 49.9562V33.6499C39.4158 33.1747 39.2635 32.7691 38.9707 32.4562C38.6662 32.1316 38.2562 31.9694 37.7643 31.9694C37.6706 31.9694 37.5652 31.981 37.4598 32.0042C37.3544 32.0273 37.249 32.0505 37.1553 32.0969L33.3605 33.4413C32.9857 33.5687 32.7046 33.7889 32.5289 34.0787C32.3532 34.3568 32.2712 34.6697 32.2712 35.0058C32.2712 35.481 32.4352 35.875 32.7631 36.1879C33.2785 36.6863 34.0281 36.7906 34.9065 36.4429L36.066 35.9562V49.9678C36.066 50.4198 36.23 50.8138 36.558 51.1383V51.1267ZM52.5571 39.3403C51.5615 38.7608 50.4137 38.4711 49.1605 38.4711H46.7829V35.2724H53.2247C53.7049 35.2724 54.1031 35.1101 54.4311 34.774C54.7473 34.4495 54.9113 34.0671 54.9113 33.6267C54.9113 33.1863 54.7473 32.7807 54.4193 32.4446C54.0914 32.1085 53.6932 31.9346 53.2247 31.9346H45.108C44.6278 31.9346 44.2179 32.1085 43.9133 32.433C43.6088 32.7575 43.4565 33.1515 43.4565 33.6151V40.1052C43.4565 40.5688 43.6088 40.9744 43.925 41.2873C44.2413 41.6002 44.6395 41.7625 45.1197 41.7625H49.1722C49.8047 41.7625 50.3669 41.9015 50.8588 42.1913C51.3507 42.4694 51.7372 42.8519 52.0183 43.3386C52.3111 43.8254 52.4399 44.3817 52.4399 45.0075C52.4399 45.6333 52.2994 46.178 52.0066 46.6648C51.7138 47.1631 51.339 47.5456 50.8471 47.8237C49.8866 48.38 48.4812 48.3916 47.4973 47.8237C47.0054 47.5456 46.6189 47.1515 46.3378 46.6648C46.0567 46.178 45.9044 45.6102 45.9044 45.0075C45.9044 44.5323 45.7405 44.1383 45.4008 43.8138C44.7449 43.188 43.6205 43.1996 43.0115 43.8254C42.707 44.1383 42.543 44.5439 42.543 45.0075C42.543 46.236 42.8358 47.3602 43.4214 48.3453C43.9953 49.3304 44.7918 50.13 45.7873 50.7095C46.7829 51.2774 47.919 51.5671 49.1605 51.5671C50.402 51.5671 51.5615 51.2774 52.5571 50.6979C53.5526 50.1184 54.3491 49.3304 54.923 48.3337C55.5086 47.337 55.8014 46.2128 55.8014 44.9959C55.8014 43.779 55.5086 42.6201 54.923 41.635C54.3491 40.6499 53.5526 39.8618 52.5571 39.2939V39.3403Z" fill="url(#paint0_linear_180_439)" shape-rendering="crispEdges"/>
</g>
<defs>
<filter id="filter0_b_180_439" x="-6.5127" y="-6.51318" width="78.7744" height="78.7747" filterUnits="userSpaceOnUse" color-interpolation-filters="sRGB">
<feFlood flood-opacity="0" result="BackgroundImageFix"/>
<feGaussianBlur in="BackgroundImageFix" stdDeviation="4"/>
<feComposite in2="SourceAlpha" operator="in" result="effect1_backgroundBlur_180_439"/>
<feBlend mode="normal" in="SourceGraphic" in2="effect1_backgroundBlur_180_439" result="shape"/>
</filter>
<filter id="filter1_b_180_439" x="7.66699" y="5.31641" width="72.9258" height="72.9258" filterUnits="userSpaceOnUse" color-interpolation-filters="sRGB">
<feFlood flood-opacity="0" result="BackgroundImageFix"/>
<feGaussianBlur in="BackgroundImageFix" stdDeviation="4"/>
<feComposite in2="SourceAlpha" operator="in" result="effect1_backgroundBlur_180_439"/>
<feBlend mode="normal" in="SourceGraphic" in2="effect1_backgroundBlur_180_439" result="shape"/>
</filter>
<filter id="filter2_d_180_439" x="19.0039" y="16.6479" width="54.252" height="54.2522" filterUnits="userSpaceOnUse" color-interpolation-filters="sRGB">
<feFlood flood-opacity="0" result="BackgroundImageFix"/>
<feColorMatrix in="SourceAlpha" type="matrix" values="0 0 0 0 0 0 0 0 0 0 0 0 0 0 0 0 0 0 127 0" result="hardAlpha"/>
<feOffset dx="2" dy="2"/>
<feGaussianBlur stdDeviation="2"/>
<feComposite in2="hardAlpha" operator="out"/>
<feColorMatrix type="matrix" values="0 0 0 0 0 0 0 0 0 0 0 0 0 0 0 0 0 0 0.15 0"/>
<feBlend mode="normal" in2="BackgroundImageFix" result="effect1_dropShadow_180_439"/>
<feBlend mode="normal" in="SourceGraphic" in2="effect1_dropShadow_180_439" result="shape"/>
</filter>
<linearGradient id="paint0_linear_180_439" x1="30.2567" y1="22.2111" x2="63.7544" y2="65.3095" gradientUnits="userSpaceOnUse">
<stop stop-color="white"/>
<stop offset="1" stop-color="white" stop-opacity="0"/>
</linearGradient>
</defs>
</svg>
