<svg width="72" height="72" viewBox="0 0 72 72" fill="none" xmlns="http://www.w3.org/2000/svg">
<g filter="url(#filter0_b_180_425)">
<rect y="11.5254" width="55.4344" height="55.4344" rx="8" transform="rotate(-12 0 11.5254)" fill="#FE551E"/>
</g>
<g filter="url(#filter1_b_180_425)">
<path d="M31.1986 69.9635L26.8334 62.3777L18.1029 60.5886C17.5819 60.4884 17.1454 60.2021 16.7933 59.7298C16.4413 59.2575 16.3146 58.7565 16.3991 58.227L17.3848 49.6392L11.8367 43.0553C11.4565 42.6689 11.2734 42.1965 11.2734 41.624C11.2734 41.0515 11.4565 40.5792 11.8367 40.1927L17.3988 33.6804L16.4131 25.0927C16.3146 24.5631 16.4554 24.0621 16.8074 23.5898C17.1595 23.1175 17.596 22.8312 18.117 22.731L26.8475 20.9419L31.1986 13.2845C31.4802 12.8122 31.8745 12.4687 32.3955 12.2826C32.9165 12.0966 33.4235 12.1109 33.9445 12.3542L41.6188 16.004L49.2932 12.3542C49.8142 12.1109 50.3212 12.0823 50.8422 12.2397C51.3632 12.3971 51.7575 12.7263 52.0391 13.213L56.4747 20.9419L65.1348 22.731C65.6558 22.8312 66.0923 23.1175 66.4444 23.5898C66.7964 24.0621 66.9231 24.5631 66.8386 25.0927L65.8529 33.6804L71.4151 40.1927C71.7953 40.5792 71.9783 41.0515 71.9783 41.624C71.9783 42.1965 71.7953 42.6689 71.4151 43.0553L65.8529 49.6392L66.8386 58.227C66.9372 58.7565 66.7964 59.2575 66.4444 59.7298C66.0923 60.2021 65.6558 60.4884 65.1348 60.5886L56.4747 62.3777L52.0391 70.0351C51.7575 70.5074 51.3632 70.8366 50.8422 71.0084C50.3212 71.1801 49.8142 71.1372 49.2932 70.8939L41.6188 67.2441L33.9445 70.8939C33.4235 71.1372 32.9165 71.1515 32.3955 70.9654C31.8745 70.7793 31.4802 70.4358 31.1986 69.9635Z" fill="#D1CFCF" fill-opacity="0.25"/>
<path d="M27.2668 62.1283L27.1544 61.9331L26.9338 61.8879L18.2033 60.0988L18.2033 60.0987L18.1973 60.0976C17.8128 60.0236 17.4806 59.8152 17.1942 59.431C16.917 59.0591 16.8311 58.6928 16.8928 58.3057L16.8946 58.2949L16.8958 58.284L17.8815 49.6963L17.9061 49.482L17.7671 49.317L12.219 42.7331L12.2066 42.7184L12.1931 42.7047C11.9124 42.4193 11.7734 42.0763 11.7734 41.624C11.7734 41.1717 11.9124 40.8288 12.1931 40.5434L12.2055 40.5308L12.2169 40.5175L17.779 34.0051L17.9204 33.8396L17.8956 33.6234L16.9099 25.0356L16.9079 25.0183L16.9047 25.0012C16.8358 24.6312 16.9248 24.2689 17.2083 23.8886C17.4947 23.5044 17.8268 23.296 18.2114 23.222L18.2114 23.2221L18.2174 23.2208L26.9478 21.4317L27.1701 21.3862L27.2822 21.1889L31.6306 13.5363C31.8576 13.1575 32.1626 12.8967 32.5637 12.7535C32.9638 12.6106 33.3336 12.6212 33.7314 12.8065C33.7319 12.8067 33.7324 12.807 33.7329 12.8072L41.4041 16.4555L41.6188 16.5576L41.8336 16.4555L49.5048 12.8072C49.5053 12.807 49.5057 12.8068 49.5062 12.8066C49.9137 12.6166 50.2933 12.5962 50.6975 12.7183C51.0859 12.8357 51.382 13.0761 51.6059 13.4626C51.606 13.4629 51.6062 13.4631 51.6063 13.4634L56.0411 21.1908L56.1531 21.386L56.3736 21.4316L65.0336 23.2207L65.0336 23.2207L65.0404 23.222C65.4249 23.296 65.7571 23.5044 66.0435 23.8886C66.3207 24.2605 66.4066 24.6268 66.3449 25.0139L66.3431 25.0247L66.3419 25.0356L65.3562 33.6234L65.3314 33.8396L65.4727 34.0051L71.0349 40.5175L71.0463 40.5308L71.0587 40.5434C71.3394 40.8288 71.4783 41.1717 71.4783 41.624C71.4783 42.0763 71.3394 42.4193 71.0587 42.7047L71.0454 42.7182L71.0331 42.7326L65.471 49.3166L65.3316 49.4816L65.3562 49.6963L66.3419 58.284L66.3439 58.3013L66.3471 58.3185C66.4159 58.6885 66.3269 59.0507 66.0435 59.431C65.7571 59.8152 65.4249 60.0236 65.0404 60.0976L65.0404 60.0975L65.0336 60.0989L56.3736 61.888L56.1543 61.9333L56.0421 62.1271L51.6096 69.779C51.6091 69.7799 51.6086 69.7808 51.6081 69.7817C51.3845 70.1554 51.0846 70.402 50.6856 70.5335C50.2975 70.6614 49.9226 70.6356 49.5061 70.4415C49.5057 70.4412 49.5052 70.441 49.5048 70.4408L41.8336 66.7925L41.6188 66.6904L41.4041 66.7925L33.7329 70.4408C33.7324 70.441 33.7319 70.4413 33.7315 70.4415C33.3337 70.6269 32.9638 70.6374 32.5637 70.4945L32.3955 70.9654L32.5637 70.4945C32.1623 70.3512 31.857 70.09 31.63 69.7106L27.2668 62.1283Z" stroke="white" stroke-opacity="0.25"/>
</g>
<g filter="url(#filter2_d_180_425)">
<path d="M38.3838 46.2149L32.8144 40.2391C32.3566 39.7201 31.792 39.4528 31.1359 39.4528C30.4797 39.4528 29.8847 39.6887 29.3811 40.1605C28.8776 40.6794 28.6182 41.2927 28.6182 41.9689C28.6182 42.6451 28.8776 43.2585 29.3811 43.7774L36.7817 51.3259C37.2394 51.7976 37.7735 52.0335 38.3838 52.0335C38.9942 52.0335 39.5283 51.7976 39.986 51.3259L53.9479 37.0153C54.4057 36.5435 54.6346 35.9616 54.6346 35.2854C54.6346 34.6092 54.3752 34.0273 53.8716 33.5556C53.4138 33.131 52.8645 32.9265 52.2389 32.958C51.6133 32.9894 51.0792 33.2096 50.6672 33.6342L38.3838 46.2149Z" fill="url(#paint0_linear_180_425)" shape-rendering="crispEdges"/>
</g>
<defs>
<filter id="filter0_b_180_425" x="-6.5127" y="-6.51318" width="78.7744" height="78.7747" filterUnits="userSpaceOnUse" color-interpolation-filters="sRGB">
<feFlood flood-opacity="0" result="BackgroundImageFix"/>
<feGaussianBlur in="BackgroundImageFix" stdDeviation="4"/>
<feComposite in2="SourceAlpha" operator="in" result="effect1_backgroundBlur_180_425"/>
<feBlend mode="normal" in="SourceGraphic" in2="effect1_backgroundBlur_180_425" result="shape"/>
</filter>
<filter id="filter1_b_180_425" x="3.27344" y="4.14185" width="76.7051" height="74.9705" filterUnits="userSpaceOnUse" color-interpolation-filters="sRGB">
<feFlood flood-opacity="0" result="BackgroundImageFix"/>
<feGaussianBlur in="BackgroundImageFix" stdDeviation="4"/>
<feComposite in2="SourceAlpha" operator="in" result="effect1_backgroundBlur_180_425"/>
<feBlend mode="normal" in="SourceGraphic" in2="effect1_backgroundBlur_180_425" result="shape"/>
</filter>
<filter id="filter2_d_180_425" x="26.6182" y="30.9548" width="34.0166" height="27.0786" filterUnits="userSpaceOnUse" color-interpolation-filters="sRGB">
<feFlood flood-opacity="0" result="BackgroundImageFix"/>
<feColorMatrix in="SourceAlpha" type="matrix" values="0 0 0 0 0 0 0 0 0 0 0 0 0 0 0 0 0 0 127 0" result="hardAlpha"/>
<feOffset dx="2" dy="2"/>
<feGaussianBlur stdDeviation="2"/>
<feComposite in2="hardAlpha" operator="out"/>
<feColorMatrix type="matrix" values="0 0 0 0 0 0 0 0 0 0 0 0 0 0 0 0 0 0 0.15 0"/>
<feBlend mode="normal" in2="BackgroundImageFix" result="effect1_dropShadow_180_425"/>
<feBlend mode="normal" in="SourceGraphic" in2="effect1_dropShadow_180_425" result="shape"/>
</filter>
<linearGradient id="paint0_linear_180_425" x1="41.6264" y1="32.9548" x2="52.2633" y2="51.7987" gradientUnits="userSpaceOnUse">
<stop stop-color="white"/>
<stop offset="1" stop-color="white" stop-opacity="0"/>
</linearGradient>
</defs>
</svg>
