<svg width="102" height="61" viewBox="0 0 102 61" fill="none" xmlns="http://www.w3.org/2000/svg">
<g clip-path="url(#clip0_180_388)">
<path fill-rule="evenodd" clip-rule="evenodd" d="M16.1914 37.1518H23.8567V11.9563L31.5028 15.27V33.6544H33.1742V15.9916L38.9214 18.4893L38.8687 32.6627H40.2528L40.2624 19.0639L44.4578 20.8795V31.4374H46.7471V16.33L16.5123 0L16.1914 37.1518Z" fill="black"/>
<path fill-rule="evenodd" clip-rule="evenodd" d="M84.3296 37.1518H76.6644V11.9563L69.0207 15.27V33.6544H67.3492V15.9916L61.5997 18.4893L61.6547 32.6627H60.2706L60.2611 19.0639L56.0656 20.8795V31.4374H53.7764V16.33L84.0111 0L84.3296 37.1518Z" fill="black"/>
<path d="M91.8865 47.3476H95.6581V57.4253H101.544V60.7181H91.8865V47.3476ZM85.3468 55.6175L83.9986 50.8109L82.6576 55.6175H85.3468ZM86.137 58.5036H81.841L81.2495 60.7102H77.3965L81.9823 47.3292H86.0939L90.682 60.7102H86.7357L86.137 58.5036ZM66.6158 47.3397H78.079V50.643H74.2308V60.7102H70.4616V50.6509H66.6158V47.3397ZM60.9884 47.3397H64.7672V60.7207H60.9884V47.3397ZM52.3007 53.0411H53.225C53.9498 53.0411 54.4598 52.9037 54.7552 52.6291C54.8966 52.4995 55.0096 52.3367 55.0858 52.1528C55.1621 51.9688 55.1997 51.7685 55.1958 51.5665C55.2002 51.3695 55.1685 51.1736 55.1027 50.9902C55.0369 50.8068 54.9383 50.6397 54.8126 50.4987C54.5588 50.2048 54.0799 50.0605 53.3758 50.0605H52.3007V53.0411ZM48.5075 47.3476H54.7767C56.1417 47.3476 57.1634 47.7035 57.8419 48.4154C58.5219 49.1238 58.862 50.1392 58.862 51.4511C58.862 52.7629 58.4932 53.857 57.7509 54.6153C57.0085 55.3735 55.8782 55.7566 54.36 55.7566H52.3007V60.7181H48.5075V47.3476ZM41.9821 55.6175L40.6315 50.8109L39.2905 55.6175H41.9821ZM42.7724 58.5036H38.4764L37.8849 60.7102H34.0319L38.6176 47.3292H42.7221L47.3102 60.7102H43.371L42.7724 58.5036ZM30.1286 55.2476L33.4309 56.3417C33.2498 57.2614 32.8931 58.1287 32.3844 58.8867C31.919 59.5559 31.307 60.0856 30.6052 60.4268C29.7489 60.8062 28.8296 60.985 27.9064 60.9516C26.5782 60.9516 25.4942 60.7408 24.6545 60.3192C23.7434 59.8274 22.9853 59.0515 22.4754 58.0891C21.8671 57.0239 21.5622 55.6621 21.5606 54.004C21.5606 51.7895 22.0978 50.0885 23.1722 48.9008C24.2466 47.7132 25.7632 47.1184 27.722 47.1167C29.2594 47.1167 30.4679 47.4569 31.3475 48.1373C32.2271 48.8177 32.8809 49.8672 33.3087 51.2858L29.9778 52.0991C29.8978 51.7814 29.7743 51.4789 29.6114 51.2018C29.4072 50.8901 29.1367 50.6375 28.8233 50.4661C28.51 50.2947 28.1632 50.2095 27.813 50.2179C27.4239 50.2009 27.0376 50.2965 26.6929 50.495C26.3482 50.6935 26.0573 50.988 25.8494 51.3488C25.507 51.9102 25.3322 52.7866 25.3322 53.9856C25.3322 55.4706 25.5405 56.486 25.95 57.037C26.16 57.3121 26.4255 57.53 26.7256 57.6734C27.0256 57.8169 27.352 57.8819 27.6789 57.8635C28.3973 57.8635 28.9457 57.6404 29.3169 57.197C29.7343 56.6403 30.0117 55.9737 30.1215 55.2633L30.1286 55.2476ZM0.188388 47.3555H5.15009L7.0658 55.489L8.98152 47.3555H13.9265V60.7364H10.8302V50.5223L8.43555 60.7181H5.65297L3.27269 50.5223V60.7181H0.183594L0.188388 47.3555Z" fill="black"/>
</g>
<defs>
<clipPath id="clip0_180_388">
<rect width="101.361" height="60.9568" fill="white" transform="translate(0.183594)"/>
</clipPath>
</defs>
</svg>
