<svg width="136" height="38" viewBox="0 0 136 38" fill="none" xmlns="http://www.w3.org/2000/svg">
<g clip-path="url(#clip0_180_396)">
<path d="M61.5066 0.856934H0.217773V22.2845H61.5066V0.856934Z" fill="#C6C6C6"/>
<path d="M61.4209 0.898254V22.2884H105.702L113.058 22.3711H129.148H129.576H130.154H130.489H135.027V0.856934L61.4209 0.898254Z" fill="black"/>
<path d="M126.738 22.373H129.154H129.577H130.158H130.487H132.536V0.856934L127.116 0.860869L119.499 5.81341L122.312 9.89035L126.738 6.90741V22.373Z" fill="#C6C6C6"/>
<path d="M53.9729 5.50049C55.8046 5.50049 57.233 6.04159 58.2661 7.12182C59.2952 8.20402 59.8117 9.69942 59.8117 11.6179C59.8117 13.5363 59.2971 15.0376 58.2661 16.1139C57.233 17.1902 55.8046 17.7293 53.9729 17.7293C52.1411 17.7293 50.6968 17.1922 49.6638 16.1139C48.6307 15.0376 48.1122 13.5422 48.1122 11.6179C48.1122 9.69352 48.6307 8.20402 49.6658 7.12182C50.7048 6.03962 52.1392 5.50049 53.9729 5.50049ZM53.9729 7.7672C53.1603 7.7672 52.5067 8.11548 52.012 8.80808C51.5173 9.50069 51.271 10.4255 51.271 11.5884C51.271 12.7512 51.5173 13.6839 52.01 14.3804C52.5027 15.075 53.1563 15.4233 53.9748 15.4233C54.7934 15.4233 55.437 15.075 55.9258 14.3824C56.4125 13.6898 56.6549 12.7591 56.6549 11.5884C56.6549 10.4176 56.4125 9.50659 55.9218 8.81005C55.4331 8.11548 54.7854 7.7672 53.9748 7.7672H53.9729ZM34.873 5.78973H39.5556C41.1151 5.78973 42.2734 6.03765 43.0243 6.5394C43.7792 7.04115 44.1567 7.80459 44.1567 8.82579C44.1567 9.58333 43.958 10.2031 43.5607 10.6891C43.1614 11.1771 42.5872 11.5018 41.8383 11.6671C42.4561 11.8914 42.9528 12.5269 43.3303 13.5796V13.5875L44.7408 17.4558H41.4668L40.4317 14.2604C40.2648 13.7488 40.0383 13.3927 39.7523 13.1939C39.4642 12.9972 39.0172 12.9008 38.4073 12.9008H37.9523V17.4578H34.877V5.78973H34.873ZM37.9484 7.84197V10.8308H39.051C39.7304 10.8308 40.239 10.7108 40.5787 10.4668C40.9184 10.2228 41.0873 9.85487 41.0873 9.36886C41.0873 8.84547 40.8986 8.45784 40.5191 8.21189C40.1436 7.96397 39.5437 7.84197 38.7252 7.84197H37.9464H37.9484ZM20.0763 5.78973H23.2172V12.58C23.2172 13.5776 23.3662 14.2958 23.6642 14.7405C23.9642 15.1832 24.441 15.4056 25.0986 15.4056C25.7562 15.4056 26.2807 15.1675 26.6243 14.6913C26.9661 14.2151 27.1389 13.5107 27.1389 12.582V5.78973H30.1328V12.58C30.1328 14.2978 29.7136 15.5866 28.8772 16.4445C28.0389 17.2984 26.7793 17.7274 25.1026 17.7274C23.4258 17.7274 22.1841 17.2945 21.3418 16.4346C20.4975 15.5728 20.0763 14.286 20.0763 12.5781V5.78973ZM7.23246 5.78973H15.4156V7.97184H10.3734V10.3291H15.1334V12.5446H10.3734V15.2029H15.6063V17.4539H7.23047V5.78973H7.23246Z" fill="#231F20"/>
<path d="M105.455 5.78973H108.596V10.2405H112.264V5.78973H115.405V17.4578H112.264V12.58H108.596V17.4578H105.455V5.78973ZM100.586 5.91959L100.354 8.32601C99.8727 8.12531 99.4118 7.96987 98.9688 7.86952C98.5278 7.76917 98.0966 7.71801 97.6834 7.71801C97.0477 7.71801 96.551 7.81836 96.1954 8.01906C95.8398 8.21779 95.661 8.49326 95.661 8.84153C95.661 9.08749 95.7504 9.30393 95.9352 9.48692C96.1179 9.67188 96.3921 9.82338 96.7537 9.94341C96.8748 9.98276 97.0517 10.0359 97.2781 10.1087C98.6271 10.5396 99.5211 10.9213 99.9641 11.248C100.381 11.5647 100.683 11.9288 100.876 12.3361C101.071 12.7453 101.168 13.2235 101.168 13.7705C101.168 15.0573 100.737 16.0372 99.8747 16.714C99.0105 17.3889 97.7649 17.7274 96.1279 17.7274C95.5358 17.7274 94.9438 17.6861 94.3498 17.6054C93.7558 17.5247 93.1677 17.4007 92.5817 17.2355L92.8479 14.6323C93.4002 14.8802 93.9366 15.0671 94.4571 15.195C94.9815 15.3249 95.4723 15.3898 95.9371 15.3898C96.557 15.3898 97.0457 15.2757 97.4053 15.0455C97.7649 14.8153 97.9437 14.5044 97.9437 14.1089C97.9437 13.6209 97.3695 13.1821 96.2212 12.7847C95.9471 12.6922 95.7305 12.6174 95.5835 12.5643C94.461 12.1629 93.6604 11.7025 93.1777 11.1712C92.6969 10.6439 92.4565 9.96899 92.4565 9.14652C92.4565 7.97577 92.8777 7.0746 93.724 6.44495C94.5703 5.81334 95.7842 5.50049 97.3636 5.50049C97.9437 5.50049 98.5039 5.53394 99.0383 5.60477C99.5747 5.67167 100.091 5.77792 100.588 5.91959H100.586ZM81.3093 5.78973H85.0979L89.5579 17.4578H86.2005L85.3641 14.9865H80.8285L79.9504 17.4578H76.8393L81.3073 5.78973H81.3093ZM83.143 8.39291L81.6172 12.767H84.6171L83.143 8.39291ZM73.897 6.13997L73.6248 8.57984C73.1818 8.31814 72.7269 8.12138 72.256 7.99348C71.7872 7.86362 71.3024 7.80065 70.8038 7.80065C69.6257 7.80065 68.6899 8.13909 67.9946 8.81792C67.2993 9.49872 66.9496 10.4097 66.9496 11.5569C66.9496 12.704 67.3032 13.6229 68.0145 14.3037C68.7237 14.9845 69.6733 15.3269 70.8554 15.3269C71.3203 15.3269 71.7951 15.2698 72.2759 15.1576C72.7606 15.0455 73.2494 14.8782 73.742 14.6539L73.9328 17.2709C73.3705 17.4263 72.8063 17.5405 72.2401 17.6152C71.6779 17.692 71.1077 17.7293 70.5356 17.7293C68.3959 17.7293 66.7291 17.1863 65.5351 16.0982C64.3411 15.014 63.7451 13.497 63.7451 11.5549C63.7451 9.61285 64.3332 8.22566 65.5113 7.13559C66.6874 6.04552 68.2867 5.50049 70.3051 5.50049C70.9786 5.50049 71.6183 5.55361 72.2242 5.65987C72.8302 5.76612 73.3904 5.92747 73.901 6.13997H73.897Z" fill="white"/>
<path d="M133.697 35.4617C133.52 35.6034 133.379 35.7706 133.274 35.9576C133.168 36.1465 133.115 36.3255 133.115 36.4987C133.115 36.6147 133.135 36.7249 133.176 36.8273C133.216 36.9296 133.28 37.0201 133.361 37.0968C133.444 37.1736 133.546 37.2346 133.671 37.2798C133.794 37.3251 133.939 37.3467 134.108 37.3467C134.309 37.3467 134.537 37.2877 134.789 37.1677V36.4219C134.73 36.4396 134.666 36.4593 134.599 36.477C134.531 36.4967 134.47 36.5065 134.416 36.5065C134.293 36.5065 134.205 36.4731 134.152 36.4062C134.1 36.3393 134.072 36.2566 134.072 36.1583C134.072 36.0992 134.082 36.0363 134.098 35.9733C134.116 35.9084 134.142 35.8454 134.176 35.7844C134.209 35.7214 134.249 35.6624 134.295 35.6073C134.342 35.5522 134.394 35.503 134.45 35.4617H133.697ZM130.594 32.8703L131.486 30.4403L132.397 32.8703H130.594ZM132.209 28.9134H130.796L128.221 35.4617H129.638L130.184 33.9742H132.827L133.405 35.4617H134.857L132.209 28.9134ZM121.648 33.0533V33.8837C121.447 34.0391 121.205 34.169 120.924 34.2792C120.644 34.3874 120.364 34.4425 120.084 34.4425C119.518 34.4425 119.061 34.2477 118.713 33.8601C118.364 33.4724 118.191 32.888 118.191 32.1108C118.191 31.3907 118.364 30.8456 118.707 30.4797C119.051 30.1137 119.516 29.9307 120.098 29.9307C120.483 29.9307 120.803 30.0232 121.062 30.2101C121.32 30.397 121.495 30.6508 121.588 30.9716L122.913 30.7256C122.78 30.1255 122.484 29.6533 122.023 29.3129C121.562 28.9725 120.92 28.8013 120.1 28.8013C119.468 28.8013 118.942 28.9095 118.517 29.1279C117.96 29.4112 117.537 29.8166 117.249 30.3478C116.961 30.8771 116.816 31.4832 116.816 32.1659C116.816 32.7936 116.945 33.376 117.203 33.9092C117.462 34.4444 117.849 34.8537 118.362 35.141C118.876 35.4283 119.478 35.5719 120.171 35.5719C120.716 35.5719 121.252 35.4696 121.783 35.2669C122.313 35.0623 122.718 34.8262 122.999 34.5586V31.9495H120.122V33.0533H121.65H121.648ZM105.699 32.406C105.699 33.1379 105.742 33.6928 105.83 34.0667C105.889 34.3205 106.014 34.5625 106.203 34.7927C106.392 35.0229 106.65 35.2118 106.976 35.3555C107.302 35.5011 107.781 35.5719 108.412 35.5719C108.937 35.5719 109.36 35.505 109.684 35.3732C110.008 35.2394 110.268 35.0623 110.463 34.8399C110.657 34.6176 110.79 34.3421 110.862 34.0175C110.933 33.6928 110.969 33.1379 110.969 32.3509V28.9115H109.634V32.5339C109.634 33.0514 109.614 33.4232 109.575 33.6456C109.535 33.8679 109.42 34.0568 109.227 34.2103C109.034 34.3638 108.748 34.4405 108.371 34.4405C107.993 34.4405 107.703 34.3598 107.489 34.1965C107.274 34.0352 107.137 33.8187 107.081 33.5511C107.048 33.3839 107.032 33.0199 107.032 32.4571V28.9115H105.697V32.404L105.699 32.406ZM96.0732 32.8703L96.9652 30.4403L97.8751 32.8703H96.0712H96.0732ZM97.6884 28.9134H96.2758L93.7011 35.4617H95.1176L95.6639 33.9742H98.3062L98.8843 35.4617H100.337L97.6903 28.9134H97.6884ZM84.0121 35.0033C84.4591 35.385 85.1028 35.5778 85.9372 35.5778C86.5113 35.5778 86.9901 35.4991 87.3755 35.3397C87.761 35.1803 88.057 34.9364 88.2676 34.6097C88.4781 34.2831 88.5834 33.9309 88.5834 33.5551C88.5834 33.1399 88.496 32.7936 88.3192 32.5122C88.1424 32.2309 87.9 32.0085 87.5881 31.8472C87.2762 31.6858 86.7974 31.5284 86.1478 31.3769C85.4981 31.2254 85.0889 31.0798 84.92 30.9401C84.7889 30.8299 84.7214 30.6981 84.7214 30.5426C84.7214 30.3734 84.7909 30.2376 84.9339 30.1353C85.1544 29.9779 85.4584 29.8992 85.8458 29.8992C86.2332 29.8992 86.5034 29.974 86.6921 30.1196C86.8789 30.2672 87.0021 30.5092 87.0597 30.8456L88.3947 30.7866C88.3729 30.1845 88.1543 29.7044 87.7351 29.3443C87.3159 28.9843 86.6901 28.8032 85.8617 28.8032C85.3531 28.8032 84.92 28.88 84.5604 29.0315C84.2009 29.183 83.9247 29.4034 83.734 29.6946C83.5433 29.9858 83.4479 30.2967 83.4479 30.6312C83.4479 31.1487 83.6505 31.5894 84.0578 31.9495C84.3459 32.2053 84.8485 32.4217 85.5637 32.5968C86.12 32.7346 86.4756 32.829 86.6325 32.8821C86.861 32.9628 87.0219 33.0573 87.1133 33.1655C87.2047 33.2737 87.2504 33.4055 87.2504 33.561C87.2504 33.803 87.1411 34.0135 86.9226 34.1926C86.704 34.3736 86.3802 34.4641 85.9511 34.4641C85.5458 34.4641 85.222 34.3618 84.9836 34.1611C84.7452 33.9584 84.5863 33.6417 84.5088 33.2088L83.2095 33.3347C83.2969 34.0667 83.5651 34.6255 84.0121 35.0072V35.0033ZM74.7006 30.0212C75.1814 30.0212 75.5012 30.035 75.6621 30.0645C75.8787 30.1038 76.0575 30.2003 76.1985 30.3557C76.3396 30.5111 76.4111 30.7079 76.4111 30.946C76.4111 31.1388 76.3614 31.31 76.2601 31.4556C76.1588 31.6012 76.0197 31.7094 75.8429 31.7763C75.6661 31.8452 75.3145 31.8787 74.788 31.8787H74.0569V30.0212H74.7026H74.7006ZM74.0549 35.4617V32.9923H74.9251C75.529 32.9923 75.9899 32.9608 76.3098 32.8979C76.5442 32.8467 76.7747 32.7444 77.0031 32.587C77.2296 32.4296 77.4164 32.2151 77.5654 31.9416C77.7124 31.6681 77.7859 31.3297 77.7859 30.9283C77.7859 30.4069 77.6568 29.9819 77.4025 29.6533C77.1462 29.3247 76.8303 29.1102 76.4508 29.0118C76.2045 28.9469 75.676 28.9134 74.8635 28.9134H72.7219V35.4617H74.0569H74.0549ZM63.0845 32.8703L63.9765 30.4403L64.8864 32.8703H63.0825H63.0845ZM64.6997 28.9134H63.2872L60.7124 35.4617H62.1289L62.6753 33.9742H65.3175L65.8937 35.4617H67.3459L64.6997 28.9134ZM42.1152 35.4617V33.4823L43.1979 32.3883L45.0158 35.4617H46.7442L44.1198 31.4635L46.6091 28.9134H44.8151L42.1172 31.8216V28.9134H40.7822V35.4617H42.1172H42.1152ZM30.6799 35.4617V31.1919L33.346 35.4617H34.6851V28.9134H33.4454V33.2875L30.7395 28.9134H29.4402V35.4617H30.6799ZM18.0805 32.406C18.0805 33.1379 18.1242 33.6928 18.2116 34.0667C18.2712 34.3205 18.3963 34.5625 18.5851 34.7927C18.7738 35.0229 19.0321 35.2118 19.3579 35.3555C19.6837 35.5011 20.1625 35.5719 20.7943 35.5719C21.3187 35.5719 21.7419 35.505 22.0657 35.3732C22.3896 35.2394 22.6498 35.0623 22.8425 34.8399C23.0372 34.6176 23.1703 34.3421 23.2418 34.0175C23.3134 33.6928 23.3511 33.1379 23.3511 32.3509V28.9115H22.0161V32.5339C22.0161 33.0514 21.9962 33.4232 21.9565 33.6456C21.9167 33.8679 21.8015 34.0568 21.6088 34.2103C21.4161 34.3638 21.132 34.4405 20.7525 34.4405C20.3731 34.4405 20.085 34.3598 19.8705 34.1965C19.6559 34.0352 19.5188 33.8187 19.4632 33.5511C19.4294 33.3839 19.4135 33.0199 19.4135 32.4571V28.9115H18.0785V32.404L18.0805 32.406ZM10.6722 33.1438C10.6722 33.6731 10.6106 34.0234 10.4874 34.1906C10.3642 34.3598 10.1537 34.4425 9.85565 34.4425C9.55765 34.4425 9.3411 34.3244 9.19806 34.0903C9.1027 33.9348 9.04509 33.6712 9.03118 33.2953L7.77362 33.439C7.77561 34.1395 7.95441 34.6707 8.30605 35.0308C8.65769 35.3928 9.16032 35.5739 9.81194 35.5739C10.3682 35.5739 10.8152 35.4578 11.1569 35.2276C11.4966 34.9974 11.7311 34.6904 11.8602 34.3106C11.9556 34.0194 12.0052 33.6023 12.0052 33.0592V28.9134H10.6742V33.1438H10.6722ZM1.28913 35.4617C1.11231 35.6034 0.971258 35.7706 0.865965 35.9576C0.760671 36.1465 0.707031 36.3255 0.707031 36.4987C0.707031 36.6147 0.726898 36.7249 0.768618 36.8273C0.808351 36.9296 0.869938 37.0201 0.953378 37.0968C1.03483 37.1736 1.13814 37.2346 1.2633 37.2798C1.38647 37.3251 1.5315 37.3467 1.70037 37.3467C1.90102 37.3467 2.12949 37.2877 2.38179 37.1677V36.4219C2.32219 36.4396 2.25862 36.4593 2.18909 36.477C2.12154 36.4967 2.06194 36.5065 2.00631 36.5065C1.88314 36.5065 1.79573 36.4731 1.74209 36.4062C1.68845 36.3393 1.66262 36.2566 1.66262 36.1583C1.66262 36.0992 1.67255 36.0363 1.69043 35.9733C1.70831 35.9084 1.73414 35.8454 1.76791 35.7844C1.80169 35.7214 1.84142 35.6624 1.88711 35.6073C1.93479 35.5522 1.98645 35.503 2.04207 35.4617H1.28913ZM2.35001 28.9134H1.01298V35.4617H2.34802V28.9134H2.35001Z" fill="black"/>
</g>
<defs>
<clipPath id="clip0_180_396">
<rect width="134.81" height="36.4898" fill="white" transform="translate(0.217773 0.856934)"/>
</clipPath>
</defs>
</svg>
